<?xml version="1.0" standalone="no"?>
<!DOCTYPE svg PUBLIC "-//W3C//DTD SVG 20010904//EN"
 "http://www.w3.org/TR/2001/REC-SVG-20010904/DTD/svg10.dtd">
<svg version="1.0" xmlns="http://www.w3.org/2000/svg"
 width="980.000000pt" height="980.000000pt" viewBox="0 0 980.000000 980.000000"
 preserveAspectRatio="xMidYMid meet">
<metadata>
Created by potrace 1.11, written by Peter Selinger 2001-2013
</metadata>
<g transform="translate(0.000000,980.000000) scale(0.100000,-0.100000)"
fill="#000000" stroke="none">
<path d="M4560 9789 c-589 -64 -1087 -266 -1558 -631 -139 -107 -474 -443
-580 -580 -337 -435 -527 -877 -614 -1423 -21 -135 -22 -172 -25 -971 l-4
-832 -177 -4 c-157 -4 -186 -8 -258 -31 -191 -63 -344 -213 -423 -415 l-26
-67 -3 -2133 c-3 -2371 -7 -2193 66 -2342 27 -56 58 -97 122 -161 99 -100 181
-150 295 -179 77 -20 112 -20 3524 -20 3824 0 3501 -6 3651 68 106 51 241 186
292 292 73 148 68 -27 68 2315 0 2351 6 2156 -71 2313 -72 147 -228 281 -389
334 -54 17 -97 22 -247 26 l-183 4 0 767 c0 790 -4 898 -45 1129 -86 493 -289
940 -616 1353 -107 136 -426 452 -560 557 -440 340 -876 528 -1424 614 -104
16 -189 21 -430 23 -165 2 -338 -1 -385 -6z m521 -1340 c493 -50 907 -281
1231 -689 156 -197 278 -459 327 -705 36 -179 41 -310 41 -1017 l0 -688 -1780
0 -1780 0 0 688 c0 401 4 735 11 802 39 431 207 788 514 1095 388 389 893 570
1436 514z"/>
</g>
</svg>
